<svg width="20" height="20" viewBox="0 0 20 20" xmlns="http://www.w3.org/2000/svg">
<g opacity="0.8">
<path d="M10.5 6.29999H9.49995V9.59999H6.19995V10.6H9.49995V13.9H10.5V10.6H13.8V9.59999H10.5V6.29999Z"/>
<path d="M9.99991 3C8.59566 3 7.22295 3.41641 6.05536 4.19657C4.88777 4.97672 3.97774 6.08559 3.44036 7.38295C2.90298 8.6803 2.76237 10.1079 3.03633 11.4851C3.31029 12.8624 3.98649 14.1275 4.97945 15.1205C5.9724 16.1134 7.2375 16.7896 8.61476 17.0636C9.99203 17.3375 11.4196 17.1969 12.717 16.6595C14.0143 16.1222 15.1232 15.2121 15.9033 14.0445C16.6835 12.877 17.0999 11.5042 17.0999 10.1C17.0973 8.21778 16.3484 6.4134 15.0174 5.08246C13.6865 3.75153 11.8821 3.00265 9.99991 3ZM9.99991 16.2C8.79344 16.2 7.61407 15.8422 6.61093 15.172C5.60779 14.5017 4.82594 13.549 4.36424 12.4344C3.90255 11.3197 3.78175 10.0932 4.01712 8.90995C4.25249 7.72666 4.83345 6.63975 5.68655 5.78665C6.53965 4.93355 7.62657 4.35258 8.80985 4.11721C9.99314 3.88184 11.2196 4.00264 12.3343 4.46433C13.4489 4.92603 14.4016 5.70788 15.0719 6.71102C15.7421 7.71416 16.0999 8.89353 16.0999 10.1C16.0983 11.7173 15.4551 13.268 14.3115 14.4116C13.1679 15.5552 11.6172 16.1984 9.99991 16.2Z"/>
</g>
</svg>
