<svg class="icon" viewBox="0 0 1024 1024" xmlns="http://www.w3.org/2000/svg" width="200" height="200"><defs><style/></defs><path d="M825.03 636.639c-12.515-28.802-19.51-61.118-19.51-95.255 0-14.395 1.241-28.35 3.643-41.794 10.311-58.067 41.932-106.009 85.57-137.038 7.794-5.52 15.96-10.545 24.464-14.975C860.34 254.84 764.586 240.525 734.45 237.392c-65.548-6.786-157.87 44.009-208.004 44.845h-1.3c-50.12-.835-142.418-51.63-208.003-44.845-32.618 3.389-136.864 25.032-199.733 125.16-22.052 35.147-39.022 79.945-46.017 137.038-2.528 20.624-3.722 42.802-3.421 66.709a541.35 541.35 0 0 0 5.509 70.34c7.03 48.824 20.276 94.85 37.397 137.05 18.989 46.793 42.71 88.852 67.974 124.59 55.921 79.097 119.256 124.88 154.913 125.68 73.356 1.648 137.12-47.94 189.711-46.652.557.127 1.125.186 1.67.127l.651-.035.65.035a4.78 4.78 0 0 0 1.624-.127c52.604-1.345 116.39 48.3 189.793 46.653 35.658-.8 98.991-46.584 154.913-125.68 25.24-35.74 48.985-77.8 67.986-124.592a720.05 720.05 0 0 0 8.142-21.227c-54.625-17.121-99.597-59.855-123.874-115.822z"/><path d="M654.645 167.609C710.961 100.913 708.791 4.89 703.711.622c-5.08-4.292-98.225 12.806-155.967 77.324-57.72 64.516-54.148 162.742-49.043 166.988 5.067 4.29 99.64-10.58 155.944-77.325z"/></svg>