<svg width="53" height="54" viewBox="0 0 53 54"  xmlns="http://www.w3.org/2000/svg">
<path d="M4.00609 18.7552C4.05596 17.5593 5.079 15.6907 6.65113 15.9648C8.7721 16.3136 8.97173 18.5061 8.97173 18.5061V18.6826L8.97168 18.7151V18.8278C8.97117 19.996 8.96798 24.0759 8.94677 26.5537C8.92181 29.1449 10.1196 29.9421 10.1196 29.9421L12.2156 31.1878L10.4689 28.6465C10.4689 28.6465 9.12145 25.283 10.7933 24.4359C12.4651 23.5888 14.028 25.5414 14.028 25.5414L22.5822 35.5345C23.3616 36.4449 23.7981 37.5992 23.8161 38.7975L23.9879 50.2479H14.1869V42.6488C9.51789 40.1207 8.0529 39.7539 6.11427 36.9432C2.67227 31.953 3.53199 27.1517 3.55685 25.1086C3.60677 23.0656 3.93116 19.9512 4.00604 18.7552H4.00609ZM48.9002 18.7552C48.9751 19.9512 49.2995 23.0656 49.3494 25.1086C49.3743 27.1516 50.234 31.953 46.792 36.9432C44.8534 39.7539 43.3884 40.1207 38.7194 42.6488V50.2479H28.9184L29.0902 38.7976C29.1082 37.5992 29.5447 36.4448 30.324 35.5344L38.8783 25.5414C38.8783 25.5414 40.4411 23.5888 42.113 24.4359C43.7848 25.283 42.4374 28.6465 42.4374 28.6465L40.6907 31.1878L42.7867 29.9421C42.7867 29.9421 43.9844 29.1449 43.9595 26.5537C43.9383 24.0759 43.9351 19.996 43.9347 18.8277V18.7151L43.9346 18.6826V18.5061C43.9346 18.5061 44.1342 16.3136 46.2552 15.9648C47.8272 15.6907 48.8503 17.5593 48.9002 18.7553L48.9002 18.7552ZM32.6359 4.22705C34.9503 4.22705 36.9613 5.18558 38.3911 6.85065C39.6943 8.36841 40.4231 10.3817 40.4231 12.3968C40.4231 14.5894 39.6704 16.7781 38.2962 18.942C37.1667 20.7205 35.645 22.4403 33.8278 24.0903C32.4811 25.3132 31.0438 26.4335 29.597 27.4357C29.5744 27.4513 29.5518 27.4669 29.5293 27.4824L29.395 27.5747L29.3285 27.6202L29.1964 27.7099L29.0657 27.7979L28.9366 27.8842L28.8726 27.9267L28.7458 28.0104L28.683 28.0516L28.5586 28.1328C28.5379 28.1461 28.5175 28.1595 28.497 28.1727L28.375 28.2512L28.3146 28.2898L28.1952 28.3658L28.0543 28.4545L27.936 28.5284L27.8599 28.5754L27.7501 28.6428L27.6289 28.7164L27.5345 28.773L27.4319 28.8338C27.133 29.0068 26.8213 29.0819 26.4848 29.0865H26.4531C26.1106 29.0865 25.7626 29.0073 25.4464 28.8173L25.2774 28.7164L25.2265 28.6856L25.1561 28.6428L25.0835 28.5983L24.9703 28.5284L24.852 28.4545L24.7111 28.3658L24.5917 28.2898L24.5313 28.2512L24.4093 28.1726L24.3477 28.1328L24.2233 28.0516C24.1815 28.0243 24.1396 27.9966 24.0973 27.9688L23.9697 27.8842L23.8406 27.7979L23.7099 27.7099L23.5778 27.6202L23.5112 27.5747L23.377 27.4825L23.3093 27.4357C21.8625 26.4335 20.4252 25.3132 19.0785 24.0903C17.2613 22.4403 15.7395 20.7204 14.6101 18.942C13.2358 16.7781 12.4832 14.5894 12.4832 12.3968C12.4832 10.3833 13.2169 8.36882 14.525 6.84947C15.957 5.18614 17.9664 4.22705 20.2704 4.22705C22.6659 4.22705 24.892 5.17294 26.4153 6.74885L26.4531 6.78845L26.491 6.7489C27.9948 5.19313 30.1834 4.2514 32.5438 4.22751L32.6359 4.22705Z" fill=""/>
</svg>
