<svg width="20" height="20" viewBox="0 0 20 20" xmlns="http://www.w3.org/2000/svg">
<path opacity="0.8" d="M7.66654 7.05942L6.95943 7.76652L9.29288 10.1L6.95943 12.4334L7.66654 13.1405L9.99999 10.8071L12.3334 13.1405L13.0405 12.4334L10.7071 10.1L13.0405 7.76652L12.3334 7.05942L9.99999 9.39287L7.66654 7.05942Z" />
<path opacity="0.8" d="M10.0004 3C8.59615 3 7.22343 3.41641 6.05585 4.19657C4.88826 4.97672 3.97823 6.08559 3.44085 7.38295C2.90347 8.6803 2.76286 10.1079 3.03682 11.4851C3.31077 12.8624 3.98698 14.1275 4.97994 15.1205C5.97289 16.1134 7.23799 16.7896 8.61525 17.0636C9.99252 17.3375 11.4201 17.1969 12.7174 16.6595C14.0148 16.1222 15.1237 15.2121 15.9038 14.0445C16.684 12.877 17.1004 11.5042 17.1004 10.1C17.0977 8.21778 16.3489 6.4134 15.0179 5.08246C13.687 3.75153 11.8826 3.00265 10.0004 3ZM10.0004 16.2C8.79393 16.2 7.61456 15.8422 6.61142 15.172C5.60828 14.5017 4.82642 13.549 4.36473 12.4344C3.90303 11.3197 3.78223 10.0932 4.0176 8.90995C4.25297 7.72666 4.83394 6.63975 5.68704 5.78665C6.54014 4.93355 7.62706 4.35258 8.81034 4.11721C9.99363 3.88184 11.2201 4.00264 12.3348 4.46433C13.4494 4.92603 14.4021 5.70788 15.0724 6.71102C15.7426 7.71416 16.1004 8.89353 16.1004 10.1C16.0988 11.7173 15.4556 13.268 14.312 14.4116C13.1684 15.5552 11.6177 16.1984 10.0004 16.2Z" />
</svg>
