<svg width="20" height="20" viewBox="0 0 20 20" xmlns="http://www.w3.org/2000/svg">
<path opacity="0.8" d="M16.48 5.50003H3.52002V6.40003H5.41002V15.31C5.41002 15.3691 5.42166 15.4276 5.44427 15.4822C5.46689 15.5368 5.50004 15.5864 5.54182 15.6282C5.58361 15.67 5.63322 15.7032 5.68781 15.7258C5.74241 15.7484 5.80092 15.76 5.86002 15.76H14.14C14.1991 15.76 14.2576 15.7484 14.3122 15.7258C14.3668 15.7032 14.4164 15.67 14.4582 15.6282C14.5 15.5864 14.5332 15.5368 14.5558 15.4822C14.5784 15.4276 14.59 15.3691 14.59 15.31V6.40003H16.48V5.50003ZM13.69 14.86H6.31002V6.40003H13.69V14.86Z" />
<path opacity="0.8" d="M12.34 3.34003H7.66003V4.24003H12.34V3.34003Z" />
<path opacity="0.8" d="M9.01002 8.56H8.11002V12.52H9.01002V8.56Z" /> 
<path opacity="0.8" d="M11.89 8.56H10.99V12.52H11.89V8.56Z" />
</svg>
