<svg width="19" height="19" viewBox="0 0 19 19" fill="none" xmlns="http://www.w3.org/2000/svg">
<circle cx="9.5" cy="9.5" r="9.1" fill="#D9C03E" stroke="#FFF8D1" stroke-width="0.8"/>
<path d="M12.4123 7.22961C12.4123 6.48368 11.8039 5.87918 11.0534 5.87918H5.81736C5.06679 5.87918 4.45835 6.48368 4.45835 7.22961V11.7703C4.45835 12.5163 5.06679 13.1208 5.81731 13.1208H11.0534C11.8039 13.1208 12.4123 12.5162 12.4123 11.7704C12.4123 11.7468 12.4178 11.7237 12.4283 11.7026C12.4389 11.6816 12.4542 11.6633 12.4731 11.6493C12.4919 11.6352 12.5138 11.6258 12.537 11.6217C12.5601 11.6176 12.5839 11.6189 12.6065 11.6257L13.7534 11.9675C14.0444 12.0542 14.3508 11.8886 14.4375 11.5974C14.4527 11.5465 14.4605 11.4936 14.4605 11.4404V7.53816C14.4605 7.23443 14.2142 6.98816 13.9105 6.98816C13.8573 6.98816 13.8043 6.99588 13.7534 7.01108L12.5859 7.359C12.5657 7.36501 12.5445 7.36624 12.5237 7.36257C12.503 7.3589 12.4835 7.35044 12.4666 7.33788C12.4498 7.32531 12.4361 7.30898 12.4266 7.29018C12.4172 7.27138 12.4123 7.25064 12.4123 7.22961ZM7.34585 10.7006V8.3452C7.34585 8.04141 7.59211 7.7952 7.89585 7.7952C8.00003 7.79519 8.10208 7.82477 8.1901 7.88049L10.0497 9.05809C10.3063 9.22062 10.3826 9.56042 10.2201 9.81704C10.1766 9.88572 10.1184 9.94391 10.0497 9.98741L8.19015 11.1652C7.93353 11.3278 7.59376 11.2515 7.43119 10.9949C7.37544 10.9069 7.34585 10.8048 7.34585 10.7006V10.7006Z" fill="white"/>
</svg>
